<svg xmlns="http://www.w3.org/2000/svg" xmlns:xlink="http://www.w3.org/1999/xlink" width="500" zoomAndPan="magnify" viewBox="0 0 375 374.999991" height="500" preserveAspectRatio="xMidYMid meet" version="1.0"><defs><g/><clipPath id="3568b2e70e"><path d="M 34 80 L 336 80 L 336 220.992188 L 34 220.992188 Z M 34 80 " clip-rule="nonzero"/></clipPath><clipPath id="d593aaae3e"><path d="M 32.855469 98 L 308 98 L 308 220.992188 L 32.855469 220.992188 Z M 32.855469 98 " clip-rule="nonzero"/></clipPath><clipPath id="9a64ca3de5"><path d="M 92 209.71875 L 375 209.71875 L 375 294 L 92 294 Z M 92 209.71875 " clip-rule="nonzero"/></clipPath><clipPath id="25abd4c10c"><path d="M 90.574219 209.71875 L 363 209.71875 L 363 276 L 90.574219 276 Z M 90.574219 209.71875 " clip-rule="nonzero"/></clipPath></defs><g clip-path="url(#3568b2e70e)"><path fill="#000000" d="M 193.179688 180.347656 C 193.179688 180.347656 212.234375 178.550781 245.636719 174.964844 C 279.039062 171.378906 279.933594 178.554688 279.933594 178.554688 C 270.632812 177.992188 193.179688 180.347656 193.179688 180.347656 Z M 38.84375 168.09375 C 38.84375 168.09375 61.375 168.34375 87.335938 169.210938 C 87.335938 169.210938 104.972656 169.195312 108.558594 174.347656 L 133.382812 173.398438 C 133.382812 173.398438 125.929688 164.542969 80.871094 163.308594 L 75.4375 166.054688 C 75.4375 166.054688 65.628906 165.496094 50.835938 165.328125 L 47.453125 162.140625 C 47.113281 161.816406 46.640625 161.683594 46.179688 161.777344 L 41.03125 162.84375 C 40.648438 162.921875 40.339844 163.203125 40.226562 163.574219 Z M 128.171875 128.675781 C 128.171875 128.675781 216.273438 63.777344 284.53125 101.101562 C 284.53125 101.101562 328.246094 121.988281 308.742188 189.3125 L 329.886719 189.3125 C 329.886719 189.3125 357.160156 112.871094 294.953125 87.652344 C 232.75 62.433594 146.664062 109.507812 128.171875 128.675781 Z M 242.164062 281 C 242.164062 281 188.699219 329.753906 131.871094 337.152344 C 75.046875 344.550781 49.824219 330.429688 34.359375 298.820312 C 34.359375 298.820312 48.820312 368.761719 153.058594 343.878906 C 153.058594 343.878906 208.203125 331.097656 266.039062 281 Z M 242.164062 281 " fill-opacity="1" fill-rule="nonzero"/></g><g clip-path="url(#d593aaae3e)"><path fill="#000000" d="M 292.375 165.628906 C 292.375 165.628906 284.902344 162.339844 267.121094 159.796875 C 267.121094 159.796875 263.570312 159.273438 254.941406 154.570312 C 246.308594 149.859375 226.171875 137.082031 207.34375 135.738281 C 207.34375 135.738281 188.585938 134.113281 157.988281 142.183594 C 157.988281 142.183594 172.78125 134.851562 203.269531 134.171875 C 203.269531 134.171875 166.09375 131.703125 143.53125 132.152344 C 143.53125 132.152344 123.503906 133.347656 109.457031 138.128906 C 95.410156 142.910156 57.449219 155.765625 43.703125 158.601562 C 43.703125 158.601562 64.175781 160.25 85.84375 158.601562 C 85.84375 158.601562 75.382812 157.707031 72.09375 153.222656 L 111.699219 139.773438 C 111.699219 139.773438 115.84375 138.242188 120.664062 138.578125 C 120.664062 138.578125 143.53125 137.867188 155.859375 141.902344 C 155.859375 141.902344 133.554688 153.332031 92.195312 160.171875 C 92.195312 160.171875 100.488281 163.234375 141.136719 162.375 C 178.191406 161.59375 253.222656 163.683594 266.972656 164.878906 C 266.972656 164.878906 283.410156 166.375 289.835938 170.707031 C 289.835938 170.707031 279.523438 176.6875 279.972656 189.6875 C 279.972656 189.6875 286.550781 174.59375 294.917969 174.890625 C 303.285156 175.191406 306.722656 189.6875 306.722656 189.6875 C 306.722656 189.6875 311.207031 173.246094 292.375 165.628906 Z M 181.484375 157.480469 C 175.957031 157.480469 172.222656 156.359375 170.800781 155.613281 C 169.382812 154.863281 167.4375 153.070312 165.71875 151.054688 C 164 149.035156 165.347656 148.140625 165.347656 148.140625 C 181.859375 138.648438 199.34375 138.5 199.34375 138.5 C 207.191406 147.167969 211.417969 158.746094 211.417969 158.746094 C 211.417969 158.746094 187.015625 157.480469 181.484375 157.480469 Z M 218.476562 158.753906 C 213.691406 146.945312 204.128906 138.503906 204.128906 138.503906 C 230.214844 139.140625 258.230469 160.398438 258.230469 160.398438 Z M 37.644531 170.035156 C 37.644531 170.035156 36.226562 173.320312 32.863281 177.058594 C 32.863281 177.058594 32.863281 185.578125 35.25 189.3125 C 35.25 189.3125 37.476562 185.148438 37.550781 180.367188 L 51.28125 181.019531 C 51.28125 181.019531 44.21875 181.691406 45.339844 188.640625 C 45.339844 188.640625 45.003906 183.035156 53.074219 183.484375 C 61.144531 183.9375 71.792969 182.699219 75.265625 188.863281 C 75.265625 188.863281 76.070312 182.863281 60.804688 181.804688 C 60.804688 181.804688 105.191406 182.25 115.167969 181.128906 C 115.167969 181.128906 58.675781 179.675781 38.164062 176.199219 C 38.167969 176.199219 38.433594 173.957031 37.644531 170.035156 Z M 158.324219 189.3125 C 158.324219 189.3125 162.582031 183.59375 170.878906 184.046875 C 179.171875 184.492188 180.851562 187.746094 182.421875 189.3125 L 187.464844 189.3125 C 187.464844 189.3125 182.871094 179.226562 170.988281 179.113281 C 159.109375 179 154.625 186.511719 153.503906 189.3125 Z M 296.296875 129.683594 C 296.296875 129.683594 282.667969 92.980469 222.882812 98.972656 C 222.882812 98.972656 180.292969 102.785156 143.976562 126.097656 L 164.039062 126.097656 C 164.039062 126.097656 252.921875 75.210938 296.296875 129.683594 Z M 41.082031 281 C 41.082031 281 45.792969 322.246094 93.761719 329.644531 C 141.734375 337.039062 188.136719 310.8125 205.625 299.828125 C 205.625 299.828125 145.769531 335.695312 94.882812 320.230469 C 94.882812 320.230469 62.378906 309.917969 58.566406 281 Z M 41.082031 281 " fill-opacity="1" fill-rule="nonzero"/></g><g clip-path="url(#9a64ca3de5)"><path fill="#000000" d="M 249.285156 126.042969 C 249.285156 126.042969 268.148438 124.269531 301.214844 120.71875 C 334.28125 117.167969 335.167969 124.269531 335.167969 124.269531 C 325.957031 123.714844 249.285156 126.042969 249.285156 126.042969 Z M 96.496094 113.914062 C 96.496094 113.914062 118.804688 114.160156 144.507812 115.023438 C 144.507812 115.023438 161.964844 115.003906 165.511719 120.105469 L 190.089844 119.164062 C 190.089844 119.164062 182.710938 110.398438 138.105469 109.179688 L 132.726562 111.898438 C 132.726562 111.898438 123.015625 111.339844 108.371094 111.175781 L 105.023438 108.019531 C 104.6875 107.703125 104.21875 107.570312 103.761719 107.664062 L 98.664062 108.71875 C 98.285156 108.796875 97.980469 109.070312 97.867188 109.441406 Z M 184.929688 74.890625 C 184.929688 74.890625 272.144531 10.648438 339.71875 47.597656 C 339.71875 47.597656 382.992188 68.269531 363.683594 134.921875 L 384.617188 134.921875 C 384.617188 134.921875 411.617188 59.246094 350.035156 34.28125 C 288.457031 9.316406 203.238281 55.917969 184.929688 74.890625 Z M 297.777344 225.683594 C 297.777344 225.683594 244.847656 273.953125 188.59375 281.277344 C 132.339844 288.597656 107.371094 274.617188 92.0625 243.328125 C 92.0625 243.328125 106.375 312.5625 209.566406 287.929688 C 209.566406 287.929688 264.160156 275.28125 321.410156 225.683594 Z M 297.777344 225.683594 " fill-opacity="1" fill-rule="nonzero"/></g><g clip-path="url(#25abd4c10c)"><path fill="#000000" d="M 347.484375 111.472656 C 347.484375 111.472656 340.085938 108.21875 322.480469 105.703125 C 322.480469 105.703125 318.96875 105.183594 310.425781 100.527344 C 301.878906 95.863281 281.945312 83.214844 263.304688 81.882812 C 263.304688 81.882812 244.738281 80.273438 214.445312 88.261719 C 214.445312 88.261719 229.09375 81.007812 259.273438 80.335938 C 259.273438 80.335938 222.472656 77.890625 200.132812 78.332031 C 200.132812 78.332031 180.308594 79.515625 166.402344 84.25 C 152.496094 88.984375 114.917969 101.707031 101.308594 104.519531 C 101.308594 104.519531 121.578125 106.148438 143.027344 104.519531 C 143.027344 104.519531 132.671875 103.632812 129.417969 99.195312 L 168.621094 85.878906 C 168.621094 85.878906 172.726562 84.363281 177.5 84.695312 C 177.5 84.695312 200.132812 83.992188 212.339844 87.988281 C 212.339844 87.988281 190.257812 99.304688 149.3125 106.070312 C 149.3125 106.070312 157.523438 109.105469 197.761719 108.253906 C 234.449219 107.480469 308.722656 109.546875 322.335938 110.734375 C 322.335938 110.734375 338.609375 112.214844 344.96875 116.503906 C 344.96875 116.503906 334.761719 122.421875 335.207031 135.292969 C 335.207031 135.292969 341.714844 120.347656 350 120.644531 C 358.28125 120.941406 361.6875 135.292969 361.6875 135.292969 C 361.6875 135.292969 366.125 119.015625 347.484375 111.472656 Z M 237.707031 103.410156 C 232.234375 103.410156 228.535156 102.300781 227.128906 101.558594 C 225.726562 100.820312 223.800781 99.042969 222.101562 97.046875 C 220.398438 95.046875 221.730469 94.160156 221.730469 94.160156 C 238.078125 84.765625 255.386719 84.617188 255.386719 84.617188 C 263.15625 93.199219 267.339844 104.664062 267.339844 104.664062 C 267.339844 104.664062 243.183594 103.410156 237.707031 103.410156 Z M 274.328125 104.667969 C 269.589844 92.980469 260.125 84.621094 260.125 84.621094 C 285.945312 85.253906 313.679688 106.296875 313.679688 106.296875 Z M 95.3125 115.835938 C 95.3125 115.835938 93.90625 119.089844 90.578125 122.789062 C 90.578125 122.789062 90.578125 131.222656 92.945312 134.921875 C 92.945312 134.921875 95.148438 130.800781 95.21875 126.0625 L 108.8125 126.710938 C 108.8125 126.710938 101.820312 127.375 102.929688 134.257812 C 102.929688 134.257812 102.597656 128.707031 110.585938 129.152344 C 118.574219 129.597656 129.117188 128.375 132.554688 134.476562 C 132.554688 134.476562 133.351562 128.535156 118.242188 127.488281 C 118.242188 127.488281 162.179688 127.929688 172.054688 126.820312 C 172.054688 126.820312 116.132812 125.378906 95.828125 121.9375 C 95.832031 121.9375 96.09375 119.71875 95.3125 115.835938 Z M 214.777344 134.921875 C 214.777344 134.921875 218.992188 129.261719 227.207031 129.707031 C 235.417969 130.148438 237.082031 133.367188 238.636719 134.921875 L 243.628906 134.921875 C 243.628906 134.921875 239.078125 124.933594 227.316406 124.824219 C 215.554688 124.710938 211.117188 132.144531 210.007812 134.921875 Z M 351.367188 75.890625 C 351.367188 75.890625 337.875 39.558594 278.691406 45.488281 C 278.691406 45.488281 236.527344 49.261719 200.574219 72.339844 L 220.433594 72.339844 C 220.4375 72.339844 308.425781 21.964844 351.367188 75.890625 Z M 98.714844 225.683594 C 98.714844 225.683594 103.378906 266.519531 150.867188 273.839844 C 198.355469 281.164062 244.292969 255.199219 261.601562 244.324219 C 261.601562 244.324219 202.351562 279.832031 151.976562 264.519531 C 151.976562 264.519531 119.796875 254.3125 116.023438 225.683594 Z M 98.714844 225.683594 " fill-opacity="1" fill-rule="nonzero"/></g><g fill="#000000" fill-opacity="1"><g transform="translate(31.793322, 219.409497)"><g><path d="M 0.359375 0 L 4.734375 -18.984375 L 1.9375 -18.984375 L 2.984375 -23.5 L 13.265625 -23.5 L 12.234375 -18.984375 L 9.4375 -18.984375 L 5.0625 0 Z M 0.359375 0 "/></g></g></g><g fill="#000000" fill-opacity="1"><g transform="translate(43.718091, 219.409497)"><g><path d="M -1.859375 0 L 3.5625 -23.5 L 8.109375 -23.5 L 2.6875 0 Z M -1.859375 0 "/></g></g></g><g fill="#000000" fill-opacity="1"><g transform="translate(51.021071, 219.409497)"><g><path d="M -1.640625 0 L 3.78125 -23.5 L 10.953125 -23.5 L 9.609375 -9.171875 L 14.890625 -23.5 L 22.109375 -23.5 L 16.6875 0 L 12.390625 0 L 16.3125 -16.9375 L 9.6875 0 L 5.46875 0 L 6.515625 -16.9375 L 2.609375 0 Z M -1.640625 0 "/></g></g></g><g fill="#000000" fill-opacity="1"><g transform="translate(72.517598, 219.409497)"><g><path d="M -1.640625 0 L 3.78125 -23.5 L 13.1875 -23.5 L 12.15625 -18.953125 L 7.53125 -18.953125 L 6.453125 -14.390625 L 10.890625 -14.390625 L 9.875 -9.953125 L 5.453125 -9.953125 L 4.1875 -4.5625 L 9.109375 -4.5625 L 8.078125 0 Z M -1.640625 0 "/></g></g></g><g fill="#000000" fill-opacity="1"><g transform="translate(84.879931, 219.409497)"><g/></g></g><g fill="#000000" fill-opacity="1"><g transform="translate(92.374356, 219.409497)"><g><path d="M 0.359375 0 L 4.734375 -18.984375 L 1.9375 -18.984375 L 2.984375 -23.5 L 13.265625 -23.5 L 12.234375 -18.984375 L 9.4375 -18.984375 L 5.0625 0 Z M 0.359375 0 "/></g></g></g><g fill="#000000" fill-opacity="1"><g transform="translate(104.299124, 219.409497)"><g><path d="M 3.78125 -23.5 L 11 -23.5 C 12.144531 -23.5 12.972656 -23.238281 13.484375 -22.71875 C 14.003906 -22.195312 14.265625 -21.46875 14.265625 -20.53125 C 14.265625 -19.59375 14.097656 -18.394531 13.765625 -16.9375 C 13.453125 -15.601562 13.035156 -14.5625 12.515625 -13.8125 C 11.992188 -13.0625 11.269531 -12.539062 10.34375 -12.25 C 11.019531 -12.101562 11.453125 -11.75 11.640625 -11.1875 C 11.835938 -10.625 11.828125 -9.859375 11.609375 -8.890625 L 9.5 0 L 4.90625 0 L 7.015625 -9.1875 C 7.171875 -9.84375 7.140625 -10.257812 6.921875 -10.4375 C 6.703125 -10.625 6.253906 -10.71875 5.578125 -10.71875 L 3.125 0 L -1.640625 0 Z M 7.6875 -14.796875 C 8.34375 -14.796875 8.835938 -15.507812 9.171875 -16.9375 C 9.316406 -17.550781 9.394531 -18.015625 9.40625 -18.328125 C 9.414062 -18.640625 9.359375 -18.851562 9.234375 -18.96875 C 9.117188 -19.09375 8.925781 -19.15625 8.65625 -19.15625 L 7.5625 -19.15625 L 6.5625 -14.796875 Z M 7.6875 -14.796875 "/></g></g></g><g fill="#000000" fill-opacity="1"><g transform="translate(118.439071, 219.409497)"><g><path d="M -2.265625 0 L 5.421875 -23.5 L 13.375 -23.5 L 10.203125 0 L 5.75 0 L 6.296875 -3.796875 L 3.453125 -3.796875 L 2.296875 0 Z M 4.6875 -7.546875 L 6.8125 -7.546875 L 8.515625 -19.5 L 8.296875 -19.5 Z M 4.6875 -7.546875 "/></g></g></g><g fill="#000000" fill-opacity="1"><g transform="translate(132.797801, 219.409497)"><g><path d="M 0.5 0 L 3.015625 -23.53125 L 7.5 -23.53125 L 5.53125 -7.53125 L 10.75 -23.53125 L 15.234375 -23.53125 L 6.921875 0 Z M 0.5 0 "/></g></g></g><g fill="#000000" fill-opacity="1"><g transform="translate(146.718966, 219.409497)"><g><path d="M -1.640625 0 L 3.78125 -23.5 L 13.1875 -23.5 L 12.15625 -18.953125 L 7.53125 -18.953125 L 6.453125 -14.390625 L 10.890625 -14.390625 L 9.875 -9.953125 L 5.453125 -9.953125 L 4.1875 -4.5625 L 9.109375 -4.5625 L 8.078125 0 Z M -1.640625 0 "/></g></g></g><g fill="#000000" fill-opacity="1"><g transform="translate(159.081299, 219.409497)"><g><path d="M -1.640625 0 L 3.78125 -23.5 L 8.484375 -23.5 L 4 -4 L 8.84375 -4 L 7.90625 0 Z M -1.640625 0 "/></g></g></g><g fill="#000000" fill-opacity="1"><g transform="translate(171.033419, 219.409497)"><g><path d="M -1.640625 0 L 3.78125 -23.5 L 13.1875 -23.5 L 12.15625 -18.953125 L 7.53125 -18.953125 L 6.453125 -14.390625 L 10.890625 -14.390625 L 9.875 -9.953125 L 5.453125 -9.953125 L 4.1875 -4.5625 L 9.109375 -4.5625 L 8.078125 0 Z M -1.640625 0 "/></g></g></g><g fill="#000000" fill-opacity="1"><g transform="translate(183.395752, 219.409497)"><g><path d="M 3.78125 -23.5 L 11 -23.5 C 12.144531 -23.5 12.972656 -23.238281 13.484375 -22.71875 C 14.003906 -22.195312 14.265625 -21.46875 14.265625 -20.53125 C 14.265625 -19.59375 14.097656 -18.394531 13.765625 -16.9375 C 13.453125 -15.601562 13.035156 -14.5625 12.515625 -13.8125 C 11.992188 -13.0625 11.269531 -12.539062 10.34375 -12.25 C 11.019531 -12.101562 11.453125 -11.75 11.640625 -11.1875 C 11.835938 -10.625 11.828125 -9.859375 11.609375 -8.890625 L 9.5 0 L 4.90625 0 L 7.015625 -9.1875 C 7.171875 -9.84375 7.140625 -10.257812 6.921875 -10.4375 C 6.703125 -10.625 6.253906 -10.71875 5.578125 -10.71875 L 3.125 0 L -1.640625 0 Z M 7.6875 -14.796875 C 8.34375 -14.796875 8.835938 -15.507812 9.171875 -16.9375 C 9.316406 -17.550781 9.394531 -18.015625 9.40625 -18.328125 C 9.414062 -18.640625 9.359375 -18.851562 9.234375 -18.96875 C 9.117188 -19.09375 8.925781 -19.15625 8.65625 -19.15625 L 7.5625 -19.15625 L 6.5625 -14.796875 Z M 7.6875 -14.796875 "/></g></g></g><g fill="#000000" fill-opacity="1"><g transform="translate(197.535708, 219.409497)"><g><path d="M 3.890625 0.21875 C 1.753906 0.21875 0.335938 -0.304688 -0.359375 -1.359375 C -1.066406 -2.421875 -1.144531 -4.128906 -0.59375 -6.484375 L -0.078125 -8.78125 L 4.546875 -8.78125 L 3.859375 -5.859375 C 3.585938 -4.691406 3.828125 -4.109375 4.578125 -4.109375 C 4.992188 -4.109375 5.316406 -4.226562 5.546875 -4.46875 C 5.773438 -4.71875 5.953125 -5.132812 6.078125 -5.71875 C 6.253906 -6.488281 6.304688 -7.125 6.234375 -7.625 C 6.160156 -8.125 6.023438 -8.539062 5.828125 -8.875 C 5.628906 -9.21875 5.25 -9.742188 4.6875 -10.453125 L 3.125 -12.46875 C 1.914062 -14.007812 1.523438 -15.707031 1.953125 -17.5625 C 2.398438 -19.570312 3.207031 -21.097656 4.375 -22.140625 C 5.539062 -23.191406 7.007812 -23.71875 8.78125 -23.71875 C 10.894531 -23.71875 12.289062 -23.15625 12.96875 -22.03125 C 13.644531 -20.914062 13.703125 -19.160156 13.140625 -16.765625 L 8.34375 -16.765625 L 8.703125 -18.390625 C 8.773438 -18.691406 8.75 -18.929688 8.625 -19.109375 C 8.5 -19.296875 8.28125 -19.390625 7.96875 -19.390625 C 7.601562 -19.390625 7.300781 -19.289062 7.0625 -19.09375 C 6.820312 -18.894531 6.664062 -18.625 6.59375 -18.28125 C 6.414062 -17.507812 6.671875 -16.710938 7.359375 -15.890625 L 9.5 -13.265625 C 9.988281 -12.648438 10.378906 -12.0625 10.671875 -11.5 C 10.960938 -10.945312 11.148438 -10.289062 11.234375 -9.53125 C 11.316406 -8.78125 11.238281 -7.882812 11 -6.84375 C 10.457031 -4.519531 9.625 -2.757812 8.5 -1.5625 C 7.375 -0.375 5.835938 0.21875 3.890625 0.21875 Z M 3.890625 0.21875 "/></g></g></g><g fill="#000000" fill-opacity="1"><g transform="translate(211.23809, 219.409497)"><g/></g></g><g fill="#000000" fill-opacity="1"><g transform="translate(218.732516, 219.409497)"><g><path d="M -1.640625 0 L 3.78125 -23.5 L 8.484375 -23.5 L 4 -4 L 8.84375 -4 L 7.90625 0 Z M -1.640625 0 "/></g></g></g><g fill="#000000" fill-opacity="1"><g transform="translate(230.684636, 219.409497)"><g><path d="M 3.921875 0.21875 C 2.023438 0.21875 0.71875 -0.359375 0 -1.515625 C -0.726562 -2.671875 -0.847656 -4.300781 -0.359375 -6.40625 L 2.21875 -17.59375 C 2.695312 -19.613281 3.546875 -21.140625 4.765625 -22.171875 C 5.984375 -23.203125 7.539062 -23.71875 9.4375 -23.71875 C 11.332031 -23.71875 12.65625 -23.203125 13.40625 -22.171875 C 14.15625 -21.140625 14.296875 -19.613281 13.828125 -17.59375 L 11.25 -6.40625 C 10.757812 -4.289062 9.890625 -2.65625 8.640625 -1.5 C 7.390625 -0.351562 5.816406 0.21875 3.921875 0.21875 Z M 4.90625 -4.109375 C 5.320312 -4.109375 5.644531 -4.289062 5.875 -4.65625 C 6.113281 -5.019531 6.304688 -5.53125 6.453125 -6.1875 L 9.109375 -17.671875 C 9.222656 -18.179688 9.25 -18.59375 9.1875 -18.90625 C 9.132812 -19.226562 8.898438 -19.390625 8.484375 -19.390625 C 7.703125 -19.390625 7.175781 -18.800781 6.90625 -17.625 L 4.25 -6.15625 C 4.082031 -5.476562 4.039062 -4.96875 4.125 -4.625 C 4.207031 -4.28125 4.46875 -4.109375 4.90625 -4.109375 Z M 4.90625 -4.109375 "/></g></g></g><g fill="#000000" fill-opacity="1"><g transform="translate(245.070719, 219.409497)"><g><path d="M 3.15625 0.21875 C 1.457031 0.21875 0.332031 -0.375 -0.21875 -1.5625 C -0.78125 -2.757812 -0.78125 -4.570312 -0.21875 -7 L 2.109375 -17.125 C 2.617188 -19.300781 3.484375 -20.941406 4.703125 -22.046875 C 5.929688 -23.160156 7.503906 -23.71875 9.421875 -23.71875 C 10.960938 -23.71875 12.085938 -23.40625 12.796875 -22.78125 C 13.515625 -22.164062 13.898438 -21.265625 13.953125 -20.078125 C 14.015625 -18.890625 13.832031 -17.367188 13.40625 -15.515625 L 8.8125 -15.515625 L 9.3125 -17.625 C 9.4375 -18.1875 9.457031 -18.617188 9.375 -18.921875 C 9.289062 -19.234375 9.050781 -19.390625 8.65625 -19.390625 C 7.757812 -19.390625 7.175781 -18.804688 6.90625 -17.640625 L 4.265625 -6.265625 C 4.109375 -5.554688 4.070312 -5.019531 4.15625 -4.65625 C 4.25 -4.289062 4.523438 -4.109375 4.984375 -4.109375 C 5.441406 -4.109375 5.804688 -4.289062 6.078125 -4.65625 C 6.347656 -5.019531 6.566406 -5.554688 6.734375 -6.265625 L 7.5 -9.625 L 6.234375 -9.625 L 7.171875 -13.6875 L 12.921875 -13.6875 L 9.765625 0 L 7.890625 0 L 7.53125 -1.96875 C 6.363281 -0.507812 4.90625 0.21875 3.15625 0.21875 Z M 3.15625 0.21875 "/></g></g></g><g fill="#000000" fill-opacity="1"><g transform="translate(259.429449, 219.409497)"><g><path d="M -1.859375 0 L 3.5625 -23.5 L 8.109375 -23.5 L 2.6875 0 Z M -1.859375 0 "/></g></g></g><g fill="#000000" fill-opacity="1"><g transform="translate(266.732426, 219.409497)"><g><path d="M 3.890625 0.21875 C 1.753906 0.21875 0.335938 -0.304688 -0.359375 -1.359375 C -1.066406 -2.421875 -1.144531 -4.128906 -0.59375 -6.484375 L -0.078125 -8.78125 L 4.546875 -8.78125 L 3.859375 -5.859375 C 3.585938 -4.691406 3.828125 -4.109375 4.578125 -4.109375 C 4.992188 -4.109375 5.316406 -4.226562 5.546875 -4.46875 C 5.773438 -4.71875 5.953125 -5.132812 6.078125 -5.71875 C 6.253906 -6.488281 6.304688 -7.125 6.234375 -7.625 C 6.160156 -8.125 6.023438 -8.539062 5.828125 -8.875 C 5.628906 -9.21875 5.25 -9.742188 4.6875 -10.453125 L 3.125 -12.46875 C 1.914062 -14.007812 1.523438 -15.707031 1.953125 -17.5625 C 2.398438 -19.570312 3.207031 -21.097656 4.375 -22.140625 C 5.539062 -23.191406 7.007812 -23.71875 8.78125 -23.71875 C 10.894531 -23.71875 12.289062 -23.15625 12.96875 -22.03125 C 13.644531 -20.914062 13.703125 -19.160156 13.140625 -16.765625 L 8.34375 -16.765625 L 8.703125 -18.390625 C 8.773438 -18.691406 8.75 -18.929688 8.625 -19.109375 C 8.5 -19.296875 8.28125 -19.390625 7.96875 -19.390625 C 7.601562 -19.390625 7.300781 -19.289062 7.0625 -19.09375 C 6.820312 -18.894531 6.664062 -18.625 6.59375 -18.28125 C 6.414062 -17.507812 6.671875 -16.710938 7.359375 -15.890625 L 9.5 -13.265625 C 9.988281 -12.648438 10.378906 -12.0625 10.671875 -11.5 C 10.960938 -10.945312 11.148438 -10.289062 11.234375 -9.53125 C 11.316406 -8.78125 11.238281 -7.882812 11 -6.84375 C 10.457031 -4.519531 9.625 -2.757812 8.5 -1.5625 C 7.375 -0.375 5.835938 0.21875 3.890625 0.21875 Z M 3.890625 0.21875 "/></g></g></g><g fill="#000000" fill-opacity="1"><g transform="translate(280.434808, 219.409497)"><g><path d="M 0.359375 0 L 4.734375 -18.984375 L 1.9375 -18.984375 L 2.984375 -23.5 L 13.265625 -23.5 L 12.234375 -18.984375 L 9.4375 -18.984375 L 5.0625 0 Z M 0.359375 0 "/></g></g></g><g fill="#000000" fill-opacity="1"><g transform="translate(292.359575, 219.409497)"><g><path d="M -1.859375 0 L 3.5625 -23.5 L 8.109375 -23.5 L 2.6875 0 Z M -1.859375 0 "/></g></g></g><g fill="#000000" fill-opacity="1"><g transform="translate(299.662552, 219.409497)"><g><path d="M 3.78125 0.21875 C 2.0625 0.21875 0.8125 -0.316406 0.03125 -1.390625 C -0.75 -2.472656 -0.921875 -3.953125 -0.484375 -5.828125 L 2 -16.65625 C 2.550781 -18.988281 3.425781 -20.75 4.625 -21.9375 C 5.832031 -23.125 7.429688 -23.71875 9.421875 -23.71875 C 11.148438 -23.71875 12.429688 -23.242188 13.265625 -22.296875 C 14.109375 -21.347656 14.320312 -19.976562 13.90625 -18.1875 L 12.96875 -14.140625 L 8.296875 -14.140625 L 9.109375 -17.625 C 9.253906 -18.289062 9.273438 -18.75 9.171875 -19 C 9.078125 -19.257812 8.832031 -19.390625 8.4375 -19.390625 C 8.007812 -19.390625 7.679688 -19.242188 7.453125 -18.953125 C 7.234375 -18.660156 7.054688 -18.234375 6.921875 -17.671875 L 4.1875 -5.875 C 4.0625 -5.257812 4.050781 -4.8125 4.15625 -4.53125 C 4.269531 -4.25 4.507812 -4.109375 4.875 -4.109375 C 5.601562 -4.109375 6.101562 -4.695312 6.375 -5.875 L 7.359375 -10.125 L 12.09375 -10.125 L 11.078125 -5.6875 C 10.171875 -1.75 7.738281 0.21875 3.78125 0.21875 Z M 3.78125 0.21875 "/></g></g></g><g fill="#000000" fill-opacity="1"><g transform="translate(313.720461, 219.409497)"><g><path d="M 3.890625 0.21875 C 1.753906 0.21875 0.335938 -0.304688 -0.359375 -1.359375 C -1.066406 -2.421875 -1.144531 -4.128906 -0.59375 -6.484375 L -0.078125 -8.78125 L 4.546875 -8.78125 L 3.859375 -5.859375 C 3.585938 -4.691406 3.828125 -4.109375 4.578125 -4.109375 C 4.992188 -4.109375 5.316406 -4.226562 5.546875 -4.46875 C 5.773438 -4.71875 5.953125 -5.132812 6.078125 -5.71875 C 6.253906 -6.488281 6.304688 -7.125 6.234375 -7.625 C 6.160156 -8.125 6.023438 -8.539062 5.828125 -8.875 C 5.628906 -9.21875 5.25 -9.742188 4.6875 -10.453125 L 3.125 -12.46875 C 1.914062 -14.007812 1.523438 -15.707031 1.953125 -17.5625 C 2.398438 -19.570312 3.207031 -21.097656 4.375 -22.140625 C 5.539062 -23.191406 7.007812 -23.71875 8.78125 -23.71875 C 10.894531 -23.71875 12.289062 -23.15625 12.96875 -22.03125 C 13.644531 -20.914062 13.703125 -19.160156 13.140625 -16.765625 L 8.34375 -16.765625 L 8.703125 -18.390625 C 8.773438 -18.691406 8.75 -18.929688 8.625 -19.109375 C 8.5 -19.296875 8.28125 -19.390625 7.96875 -19.390625 C 7.601562 -19.390625 7.300781 -19.289062 7.0625 -19.09375 C 6.820312 -18.894531 6.664062 -18.625 6.59375 -18.28125 C 6.414062 -17.507812 6.671875 -16.710938 7.359375 -15.890625 L 9.5 -13.265625 C 9.988281 -12.648438 10.378906 -12.0625 10.671875 -11.5 C 10.960938 -10.945312 11.148438 -10.289062 11.234375 -9.53125 C 11.316406 -8.78125 11.238281 -7.882812 11 -6.84375 C 10.457031 -4.519531 9.625 -2.757812 8.5 -1.5625 C 7.375 -0.375 5.835938 0.21875 3.890625 0.21875 Z M 3.890625 0.21875 "/></g></g></g></svg>